HIERARCHY
ROOT reference
{
  OFFSET 0 0 0
  CHANNELS 6 Xposition Yposition Zposition Zrotation Xrotation Yrotation
  JOINT Hips
  {
    OFFSET -88.9081 90.2011 104.008
    CHANNELS 6 Xposition Yposition Zposition Zrotation Xrotation Yrotation
    JOINT Spine
    {
      OFFSET 0 7.57377 0
      CHANNELS 6 Xposition Yposition Zposition Zrotation Xrotation Yrotation
      JOINT Spine1
      {
        OFFSET 0 21.6353 0
        CHANNELS 6 Xposition Yposition Zposition Zrotation Xrotation Yrotation
        JOINT Neck
        {
          OFFSET 0 21.5464 1.95876
          CHANNELS 6 Xposition Yposition Zposition Zrotation Xrotation Yrotation
          JOINT Head
          {
            OFFSET 0 12.9308 -1.84726
            CHANNELS 6 Xposition Yposition Zposition Zrotation Xrotation Yrotation
            End Site
            {
              OFFSET 0 23.0907 0
            }
          }
        }
        JOINT LeftShoulder
        {
          OFFSET 3.70822 19.5981 -0.368577
          CHANNELS 6 Xposition Yposition Zposition Zrotation Xrotation Yrotation
          JOINT LeftArm
          {
            OFFSET 11.1726 0 0
            CHANNELS 6 Xposition Yposition Zposition Zrotation Xrotation Yrotation
            JOINT LeftForeArm
            {
              OFFSET 28.6421 0 0
              CHANNELS 6 Xposition Yposition Zposition Zrotation Xrotation Yrotation
              JOINT LeftHand
              {
                OFFSET 23.9346 0 0
                CHANNELS 6 Xposition Yposition Zposition Zrotation Xrotation Yrotation
                End Site
                {
                  OFFSET 13.8545 0 0
                }
              }
            }
          }
        }
        JOINT RightShoulder
        {
          OFFSET -3.63664 19.5981 -0.368577
          CHANNELS 6 Xposition Yposition Zposition Zrotation Xrotation Yrotation
          JOINT RightArm
          {
            OFFSET -11.1726 0 0
            CHANNELS 6 Xposition Yposition Zposition Zrotation Xrotation Yrotation
            JOINT RightForeArm
            {
              OFFSET -28.6421 0 0
              CHANNELS 6 Xposition Yposition Zposition Zrotation Xrotation Yrotation
              JOINT RightHand
              {
                OFFSET -23.9346 0 0
                CHANNELS 6 Xposition Yposition Zposition Zrotation Xrotation Yrotation
                End Site
                {
                  OFFSET -13.8545 0 0
                }
              }
            }
          }
        }
      }
    }
    JOINT LeftUpLeg
    {
      OFFSET 9.2363 0 0
      CHANNELS 6 Xposition Yposition Zposition Zrotation Xrotation Yrotation
      JOINT LeftLeg
      {
        OFFSET 0 -40.7061 0
        CHANNELS 6 Xposition Yposition Zposition Zrotation Xrotation Yrotation
        JOINT LeftFoot
        {
          OFFSET 0 -40.9975 0
          CHANNELS 6 Xposition Yposition Zposition Zrotation Xrotation Yrotation
          JOINT LeftToeBase
          {
            OFFSET 0 -6.00359 13.8545
            CHANNELS 6 Xposition Yposition Zposition Zrotation Xrotation Yrotation
            End Site
            {
              OFFSET 0 0 3.69452
            }
          }
        }
      }
    }
    JOINT RightUpLeg
    {
      OFFSET -9.2363 0 0
      CHANNELS 6 Xposition Yposition Zposition Zrotation Xrotation Yrotation
      JOINT RightLeg
      {
        OFFSET 0 -40.7061 0
        CHANNELS 6 Xposition Yposition Zposition Zrotation Xrotation Yrotation
        JOINT RightFoot
        {
          OFFSET 0 -40.9975 0
          CHANNELS 6 Xposition Yposition Zposition Zrotation Xrotation Yrotation
          JOINT RightToeBase
          {
            OFFSET 0 -6.00359 13.8545
            CHANNELS 6 Xposition Yposition Zposition Zrotation Xrotation Yrotation
            End Site
            {
              OFFSET 0 0 3.69452
            }
          }
        }
      }
    }
  }
}
MOTION
Frames:	4
Frame Time:	0.004
0 0 0 0 0 -0 -29.0096 81.1694 -175.821 0.974191 2.33232 12.2604 3.55271e-015 7.57377 0 -2.4232 -7.36759 -0.529853 7.10543e-015 21.6353 0 1.13145 -4.99773 -0.32424 -3.55271e-015 21.5464 1.95876 -2.57438 15.6988 4.26283 -7.10543e-015 12.9308 -1.84726 4.5058 21.1427 4.25045 3.70822 19.5981 -0.368577 15.3674 -1.14556 -12.1232 11.1726 0 2.84217e-014 -24.2923 5.70817 0.255246 28.6421 0 5.68434e-014 1.89155 -2.73528 0.548708 23.9346 -2.84217e-014 0 16.3454 -3.12818 -2.6758 -3.63664 19.5981 -0.368577 -16.8194 -1.57678 -4.77618 -11.1726 0 0 20.3148 -3.92264 8.13742 -28.6421 0 0 -0.553334 2.5612 -5.86393 -23.9346 2.84217e-014 2.84217e-014 -21.1833 3.42798 -4.79038 9.2363 -1.42109e-014 0 -2.42458 -2.36513 -1.07876 3.55271e-015 -40.7061 -2.84217e-014 0.827924 4.95693 0.655295 -3.55271e-015 -40.9975 0 5.64742 -17.2036 -10.9236 0 -6.00359 13.8545 4.96962e-017 0 3.97569e-016 -9.2363 0 0 -0.889934 1.57102 1.92887 -7.10543e-015 -40.7061 -2.84217e-014 3.58023 4.69629 1.18354 0 -40.9975 2.84217e-014 -20.2208 -15.5128 -17.281 -7.10543e-015 -6.00359 13.8545 1.86361e-016 1.59028e-015 -1.98785e-016 
0 0 0 0 0 -0 -29.0096 81.1694 -175.781 0.972937 2.3517 12.1917 3.55271e-015 7.57377 2.84217e-014 -2.41966 -7.42759 -0.498147 0 21.6353 2.84217e-014 1.10963 -4.99774 -0.292764 0 21.5464 1.95876 -2.56301 15.75 4.27762 -7.10543e-015 12.9308 -1.84726 4.47947 21.1646 4.26486 3.70822 19.5981 -0.368577 15.3703 -1.13401 -12.1028 11.1726 -2.84217e-014 -2.84217e-014 -24.2502 5.60168 0.296097 28.6421 0 0 1.82051 -2.62709 0.517911 23.9346 5.68434e-014 -2.84217e-014 16.4866 -3.02578 -2.69795 -3.63664 19.5981 -0.368577 -16.7962 -1.56955 -4.7661 -11.1726 0 0 20.3413 -3.78969 8.19536 -28.6421 0 0 -0.629457 2.52299 -5.795 -23.9346 0 2.84217e-014 -21.4262 3.3959 -4.78568 9.2363 0 0 -2.41804 -2.30902 -1.10871 7.10543e-015 -40.7061 -2.84217e-014 0.816035 4.89846 0.435834 0 -40.9975 0 5.75988 -17.1781 -10.572 -3.55271e-015 -6.00359 13.8545 -9.44227e-016 -3.18055e-015 2.98177e-016 -9.2363 -1.42109e-014 2.84217e-014 -0.895228 1.57101 1.93894 1.42109e-014 -40.7061 0 3.58288 4.69634 1.15118 0 -40.9975 2.84217e-014 -20.2207 -15.5472 -17.2079 0 -6.00359 13.8545 2.11209e-015 -1.59028e-015 2.98177e-016 
0 0 0 0 0 -0 -29.0096 81.1694 -175.759 0.972568 2.35869 12.1652 3.55271e-015 7.57377 2.84217e-014 -2.43027 -7.45749 -0.485715 3.55271e-015 21.6353 -2.84217e-014 1.12245 -4.99775 -0.278419 -3.55271e-015 21.5464 1.95876 -2.56538 15.7671 4.28897 0 12.9308 -1.84726 4.46065 21.1943 4.2759 3.70822 19.5981 -0.368577 15.3679 -1.14604 -12.0977 11.1726 0 2.84217e-014 -24.2499 5.60412 0.321768 28.6421 -2.84217e-014 2.84217e-014 1.82114 -2.60042 0.514261 23.9346 2.84217e-014 0 16.5281 -3.00271 -2.71614 -3.63664 19.5981 -0.368577 -16.8034 -1.55117 -4.78132 -11.1726 2.84217e-014 0 20.3552 -3.75145 8.25039 -28.6421 -2.84217e-014 0 -0.621274 2.48625 -5.7511 -23.9346 -2.84217e-014 0 -21.7914 3.36862 -4.74918 9.2363 0 2.84217e-014 -2.41365 -2.27673 -1.16904 0 -40.7061 2.84217e-014 0.79049 4.85718 0.614578 0 -40.9975 0 5.79928 -17.2019 -10.6315 0 -6.00359 13.8545 -8.44835e-016 0 -2.98177e-016 -9.2363 0 0 -0.900963 1.57099 1.95417 0 -40.7061 -2.84217e-014 3.58079 4.6963 1.17675 0 -40.9975 2.84217e-014 -20.276 -15.5305 -17.2349 0 -6.00359 13.8545 2.04997e-015 1.59028e-015 -9.93923e-017 
0 0 0 0 0 -0 -29.006 81.1694 -175.74 0.970925 2.37196 12.1371 -7.10543e-015 7.57377 0 -2.42687 -7.49186 -0.478513 0 21.6353 0 1.10342 -4.99775 -0.271708 3.55271e-015 21.5464 1.95876 -2.57049 15.7853 4.30131 0 12.9308 -1.84726 4.46847 21.2152 4.28707 3.70822 19.5981 -0.368577 15.3834 -1.14203 -12.0718 11.1726 2.84217e-014 0 -24.249 5.58643 0.329603 28.6421 2.84217e-014 0 1.81966 -2.57404 0.522973 23.9346 -2.84217e-014 -2.84217e-014 16.584 -2.97987 -2.73045 -3.63664 19.5981 -0.368577 -16.7807 -1.55653 -4.77023 -11.1726 -2.84217e-014 2.84217e-014 20.3601 -3.69586 8.2823 -28.6421 0 0 -0.686376 2.52125 -5.68405 -23.9346 0 -2.84217e-014 -21.61 3.3955 -4.76252 9.2363 0 0 -2.41251 -2.25084 -1.19972 -7.10543e-015 -40.7061 0 0.7948 4.78529 0.92397 0 -40.9975 2.84217e-014 5.68339 -17.2207 -10.9657 0 -6.00359 13.8545 -3.47873e-016 1.59028e-015 9.93923e-017 -9.2363 1.42109e-014 2.84217e-014 -0.907168 1.57101 1.93864 0 -40.7061 2.84217e-014 3.57977 4.70845 1.18613 0 -40.9975 0 -20.2344 -15.5715 -17.184 -7.10543e-015 -6.00359 13.8545 2.90723e-015 0 -1.98785e-016 
